<?xml version="1.0" standalone="no"?>
<!DOCTYPE svg PUBLIC "-//W3C//DTD SVG 20010904//EN"
 "http://www.w3.org/TR/2001/REC-SVG-20010904/DTD/svg10.dtd">
<svg version="1.0" xmlns="http://www.w3.org/2000/svg"
 width="329.000000pt" height="329.000000pt" viewBox="0 0 329.000000 329.000000"
 preserveAspectRatio="xMidYMid meet">

<g transform="translate(0.000000,329.000000) scale(0.100000,-0.100000)"
fill="#000000" stroke="none">
<path d="M922 3197 c-94 -142 -153 -288 -188 -466 -25 -126 -15 -393 18 -520
l25 -94 -34 -56 c-19 -31 -46 -92 -61 -136 -23 -71 -26 -95 -27 -220 0 -85 4
-147 11 -159 9 -15 12 -7 18 47 16 162 116 408 197 487 90 88 239 104 371 40
l40 -19 -7 26 c-3 15 -16 40 -27 56 l-21 30 39 -7 c58 -11 150 -64 202 -116
l45 -45 -50 -6 c-76 -10 -79 -17 -26 -52 54 -36 107 -109 124 -170 11 -42 6
-288 -7 -352 -9 -40 7 -24 40 40 28 55 31 46 16 -57 -5 -37 -19 -85 -30 -106
-12 -22 -23 -55 -27 -74 -5 -35 -5 -35 36 -41 23 -3 54 -13 69 -23 l26 -17
-30 -11 c-33 -12 -80 -43 -73 -49 2 -3 31 0 64 6 48 8 67 7 90 -4 45 -21 44
-52 0 -74 -43 -20 -84 -15 -150 17 -79 38 -123 2 -111 -91 8 -62 30 -90 87
-114 32 -14 49 -27 49 -38 0 -25 -48 -59 -83 -59 -47 0 -111 44 -142 95 -46
79 -215 245 -250 245 -3 0 14 -26 38 -57 24 -32 69 -98 100 -148 88 -142 104
-163 139 -182 46 -24 132 -22 183 6 50 27 88 27 132 0 25 -16 46 -20 83 -17
49 3 50 3 27 -14 -74 -58 -239 -83 -341 -54 -32 10 -60 15 -62 13 -10 -9 101
-118 139 -136 58 -28 91 -26 175 8 121 50 220 129 325 261 26 33 25 30 -8 -36
-43 -85 -124 -186 -191 -239 -27 -21 -66 -62 -87 -90 -21 -28 -60 -76 -87
-105 -28 -30 -50 -56 -50 -58 0 -2 12 4 27 13 14 10 42 27 60 38 l34 20 -35
-64 c-34 -62 -102 -247 -93 -255 2 -2 23 26 46 62 54 85 322 356 328 333 3
-15 -18 -87 -42 -141 -4 -10 -3 -18 1 -18 14 1 132 192 201 325 64 124 67 126
81 46 l7 -44 58 71 c67 83 165 226 178 261 17 42 20 16 4 -34 -8 -27 -13 -51
-11 -53 7 -6 47 58 77 123 34 75 69 211 69 270 0 57 17 26 25 -48 l7 -60 25
29 c38 45 90 163 103 233 21 117 -8 240 -108 456 -80 174 -176 317 -293 434
-71 71 -176 158 -226 187 -31 17 -43 34 -25 34 17 0 81 98 100 153 l19 58 12
-57 c6 -32 11 -88 11 -126 l0 -69 62 -60 c35 -32 64 -59 66 -59 1 0 -10 24
-24 53 -26 49 -27 60 -28 212 -2 145 -4 168 -29 242 -15 45 -31 84 -36 87 -12
8 -86 -73 -125 -138 -21 -34 -42 -89 -52 -133 -14 -66 -18 -72 -29 -56 -7 11
-21 45 -30 78 -44 150 31 304 178 371 l61 27 23 -29 c29 -35 96 -164 123 -237
51 -138 70 -314 51 -470 l-12 -96 47 -58 c100 -123 183 -274 224 -411 12 -40
25 -71 27 -68 8 7 -15 131 -39 211 -24 82 -76 200 -119 266 l-30 47 12 89 c15
114 6 321 -20 433 -38 165 -95 298 -187 435 -89 132 -75 124 -136 75 -138
-112 -295 -282 -402 -433 l-48 -67 -117 6 c-64 3 -144 2 -178 -3 l-62 -9 -43
65 c-102 155 -310 385 -414 459 l-32 22 -60 -93z m218 -252 c53 -68 97 -161
120 -252 l20 -75 -37 -72 c-40 -75 -194 -243 -213 -231 -15 9 -48 126 -56 197
l-7 63 23 -28 c12 -15 39 -36 61 -47 l38 -20 16 23 c24 38 28 81 11 146 -21
82 -102 208 -122 189 -14 -15 -77 -187 -91 -251 -9 -41 -17 -124 -17 -193 -1
-74 -6 -127 -13 -135 -6 -8 -16 -30 -21 -49 l-9 -35 -11 27 c-30 74 -45 193
-39 313 9 186 60 329 175 484 l54 73 40 -38 c21 -22 57 -61 78 -89z m880 -772
c0 -5 -29 -23 -64 -41 -35 -18 -82 -48 -104 -67 -45 -39 -52 -42 -52 -19 0 12
-6 15 -26 10 l-26 -7 19 32 c19 33 68 79 84 79 5 0 9 -9 9 -20 0 -23 12 -25
43 -8 17 9 75 34 115 47 1 1 2 -2 2 -6z m115 -435 c-13 -24 -26 -58 -30 -76
-4 -17 -20 -45 -36 -62 -42 -41 -90 -49 -165 -25 -15 5 -34 -4 -68 -30 -55
-42 -51 -27 17 65 87 117 167 167 274 169 l32 1 -24 -42z m329 -115 c19 -74
21 -210 2 -278 -7 -28 -23 -73 -36 -100 l-24 -50 -4 32 c-3 28 -27 63 -36 52
-1 -2 -22 -39 -45 -81 -36 -67 -121 -168 -141 -168 -4 0 3 21 16 48 13 26 28
71 35 101 17 83 1 85 -73 10 -58 -59 -86 -103 -119 -184 l-12 -30 -7 25 c-12
38 -11 103 1 139 10 28 8 39 -14 79 -37 70 -78 220 -56 206 5 -3 9 -11 9 -17
0 -24 58 -133 83 -156 26 -23 27 -24 54 -6 88 58 197 190 210 257 6 31 6 31
15 7 5 -13 10 -52 11 -86 1 -35 4 -63 8 -63 8 0 48 127 60 195 6 33 9 96 7
139 l-5 79 23 -45 c12 -24 30 -72 38 -105z"/>
<path d="M1172 2044 c-67 -18 -106 -38 -160 -81 -44 -36 -99 -109 -89 -119 3
-3 25 5 48 17 l43 22 -51 -57 c-53 -58 -90 -135 -101 -211 l-5 -40 51 55 51
55 1 -59 c0 -74 19 -186 31 -186 5 0 9 8 9 18 0 10 6 27 14 37 12 17 15 17 52
-13 59 -47 184 -96 184 -72 0 5 -5 10 -10 10 -6 0 -34 21 -61 47 -51 47 -90
111 -103 168 l-8 30 -26 -48 c-15 -26 -31 -47 -36 -47 -5 0 -6 22 -3 50 5 42
18 79 55 153 2 5 -6 4 -18 -3 -31 -17 -37 -4 -9 20 70 59 173 100 251 100 28
0 47 4 43 9 -10 17 -104 43 -160 44 -30 1 -55 5 -55 9 0 10 62 59 97 76 18 9
33 19 33 24 0 10 -4 10 -68 -8z"/>
<path d="M1144 1734 c14 -27 26 -60 26 -73 0 -14 16 -39 39 -62 35 -36 43 -39
93 -39 30 0 59 5 65 11 14 14 46 -2 96 -49 84 -81 21 29 -92 160 -46 52 -120
89 -194 96 l-59 5 26 -49z"/>
<path d="M759 1510 c-6 -160 35 -293 111 -365 44 -41 115 -135 136 -179 26
-53 33 -44 18 21 -7 31 -11 59 -9 61 2 3 41 -32 87 -77 45 -44 84 -81 85 -81
7 0 -61 127 -90 170 -17 25 -74 88 -127 140 -104 103 -146 170 -186 295 l-22
70 -3 -55z"/>
<path d="M642 1229 c4 -112 9 -146 31 -207 34 -98 79 -172 151 -250 51 -54
146 -132 146 -119 0 3 -9 26 -21 52 -26 58 -18 68 17 24 80 -100 320 -319 349
-319 4 0 -18 28 -50 62 -79 85 -216 254 -310 381 -43 59 -80 106 -82 103 -2
-2 -7 -32 -12 -67 l-8 -64 -66 135 c-62 127 -127 314 -127 366 0 12 -5 26 -11
30 -8 5 -10 -30 -7 -127z"/>
<path d="M1347 528 c71 -77 162 -228 188 -313 l13 -40 7 46 c13 84 -24 168
-106 244 -90 83 -164 128 -102 63z"/>
</g>
</svg>
